<svg xmlns="http://www.w3.org/2000/svg" style="display:none;">
  <symbol id="icon-check" viewBox="0 0 20 20">
    <path fill="currentColor" d="M20 10C20 15.523 15.523 20 10 20C4.477 20 0 15.523 0 10C0 4.477 4.477 0 10 0C15.523 0 20 4.477 20 10ZM14.814 7.581C14.8903 7.4741 14.9448 7.35323 14.9744 7.22527C15.004 7.09731 15.0081 6.96478 14.9864 6.83524C14.9648 6.70571 14.9178 6.5817 14.8483 6.4703C14.7787 6.3589 14.6879 6.2623 14.581 6.186C14.4741 6.1097 14.3532 6.05521 14.2253 6.02562C14.0973 5.99604 13.9648 5.99195 13.8352 6.01359C13.7057 6.03522 13.5817 6.08216 13.4703 6.15172C13.3589 6.22128 13.2623 6.3121 13.186 6.419L8.872 12.459L6.707 10.293C6.5184 10.1108 6.2658 10.01 6.0036 10.0123C5.7414 10.0146 5.49059 10.1198 5.30518 10.3052C5.11977 10.4906 5.0146 10.7414 5.01233 11.0036C5.01005 11.2658 5.11084 11.5184 5.293 11.707L8.293 14.707C8.3957 14.8095 8.51948 14.8885 8.65576 14.9384C8.79204 14.9883 8.93754 15.0079 9.08217 14.9959C9.2268 14.9839 9.36709 14.9406 9.49329 14.869C9.61949 14.7973 9.72859 14.699 9.813 14.581L14.814 7.581Z"/>
  </symbol>

  <symbol id="icon-trending" viewBox="0 0 80 80">
  <rect x="4" y="2" width="72" height="72" rx="36" fill="#EC5C2E"/>
  
  <path d="M47.1426 28H58.5711V39.4286"
  fill="none"
        stroke="white"
        stroke-width="3"
        stroke-linecap="round"
        stroke-linejoin="round"/>
        
  <path d="M58.5706 28L42.4277 44.1429C42.1607 44.4046 41.8017 44.5512 41.4277 44.5512C41.0538 44.5512 40.6948 44.4046 40.4277 44.1429L33.8563 37.5714C33.5893 37.3097 33.2302 37.1631 32.8563 37.1631C32.4824 37.1631 32.1233 37.3097 31.8563 37.5714L21.4277 48"
        stroke="white"
        fill="none"
        stroke-width="3"
        stroke-linecap="round"
        stroke-linejoin="round"/>
</symbol>
<symbol id="icon-heart" viewBox="0 0 80 80">
  <rect x="4" y="2" width="72" height="72" rx="36" fill="#EC5C2E"/>
  
  <path
    d="M47.501 23.5C52.3586 23.5002 56.167 27.2938 56.167 32.167C56.1669 35.1442 54.8292 37.8928 52.374 40.8965C49.9133 43.907 46.3825 47.1122 42.0811 51.0127V51.0137L40 52.9072L37.9209 51.0137L37.9199 51.0127L34.8428 48.21C31.9199 45.5217 29.4725 43.1543 27.627 40.8965C25.1718 37.8928 23.8341 35.1442 23.834 32.167C23.834 27.2937 27.6432 23.5 32.501 23.5C35.2496 23.5001 37.896 24.7821 39.6211 26.792L40.001 27.2344L40.3799 26.792C42.1051 24.782 44.7522 23.5 47.501 23.5Z"
    fill="white"
  />
</symbol>


<symbol id="icon-user" viewBox="0 0 80 80">
  <rect x="4" y="2" width="72" height="72" rx="36" fill="#EC5C2E"/>
  
  <path
    d="M40 18.5C50.7698 18.5 59.5 27.2302 59.5 38V38.001C59.5062 42.2841 58.0961 46.4492 55.4893 49.8477L55.3379 50.0459L55.3428 50.0635L54.8066 50.6885C53.7098 51.9679 52.4519 53.1006 51.0654 54.0586C47.8141 56.3064 43.9537 57.5073 40.001 57.5H40C37.1865 57.5025 34.4056 56.8946 31.8496 55.7188C29.2938 54.543 27.023 52.8273 25.1943 50.6895L25.1934 50.6885L24.6562 50.0635L24.6621 50.0459L24.5107 49.8477C21.9037 46.4492 20.4936 42.2841 20.5 38.001V38C20.5 27.2302 29.2302 18.5 40 18.5ZM40 21.5C37.1142 21.4995 34.2785 22.2556 31.7764 23.6934C29.2741 25.1312 27.193 27.2007 25.7402 29.6943C24.2876 32.1878 23.5138 35.0186 23.4971 37.9043C23.4804 40.7902 24.2217 43.6304 25.6455 46.1406L26.0166 46.7959L26.4766 46.1992C27.363 45.0472 28.5022 44.114 29.8066 43.4727C31.111 42.8313 32.5455 42.4985 33.999 42.5H46.001C47.4545 42.4985 48.889 42.8313 50.1934 43.4727C51.4978 44.114 52.637 45.0472 53.5234 46.1992L53.9834 46.7959L54.3545 46.1406C55.7783 43.6304 56.5196 40.7902 56.5029 37.9043C56.4862 35.0186 55.7124 32.1878 54.2598 29.6943C52.807 27.2007 50.7259 25.1312 48.2236 23.6934C45.8777 22.3454 43.2387 21.5967 40.54 21.5088L40 21.5ZM40 26.5C41.4587 26.5 42.8572 27.0799 43.8887 28.1113C44.9201 29.1428 45.5 30.5413 45.5 32C45.5 33.4587 44.9201 34.8572 43.8887 35.8887C42.8572 36.9201 41.4587 37.5 40 37.5C38.5413 37.5 37.1428 36.9201 36.1113 35.8887C35.0799 34.8572 34.5 33.4587 34.5 32C34.5 30.5413 35.0799 29.1428 36.1113 28.1113C37.1428 27.0799 38.5413 26.5 40 26.5Z"
    fill="white"
  />
</symbol>
</svg>