<svg xmlns="http://www.w3.org/2000/svg" style="display:none;">
  <symbol id="icon-check" viewBox="0 0 20 20">
    <path fill="currentColor" d="M20 10C20 15.523 15.523 20 10 20C4.477 20 0 15.523 0 10C0 4.477 4.477 0 10 0C15.523 0 20 4.477 20 10ZM14.814 7.581C14.8903 7.4741 14.9448 7.35323 14.9744 7.22527C15.004 7.09731 15.0081 6.96478 14.9864 6.83524C14.9648 6.70571 14.9178 6.5817 14.8483 6.4703C14.7787 6.3589 14.6879 6.2623 14.581 6.186C14.4741 6.1097 14.3532 6.05521 14.2253 6.02562C14.0973 5.99604 13.9648 5.99195 13.8352 6.01359C13.7057 6.03522 13.5817 6.08216 13.4703 6.15172C13.3589 6.22128 13.2623 6.3121 13.186 6.419L8.872 12.459L6.707 10.293C6.5184 10.1108 6.2658 10.01 6.0036 10.0123C5.7414 10.0146 5.49059 10.1198 5.30518 10.3052C5.11977 10.4906 5.0146 10.7414 5.01233 11.0036C5.01005 11.2658 5.11084 11.5184 5.293 11.707L8.293 14.707C8.3957 14.8095 8.51948 14.8885 8.65576 14.9384C8.79204 14.9883 8.93754 15.0079 9.08217 14.9959C9.2268 14.9839 9.36709 14.9406 9.49329 14.869C9.61949 14.7973 9.72859 14.699 9.813 14.581L14.814 7.581Z"/>
  </symbol>

  <symbol id="icon-trending" viewBox="0 0 80 80">
  <rect x="4" y="2" width="72" height="72" rx="36" fill="#EC5C2E"/>
  
  <path d="M47.1426 28H58.5711V39.4286"
  fill="none"
        stroke="white"
        stroke-width="3"
        stroke-linecap="round"
        stroke-linejoin="round"/>
        
  <path d="M58.5706 28L42.4277 44.1429C42.1607 44.4046 41.8017 44.5512 41.4277 44.5512C41.0538 44.5512 40.6948 44.4046 40.4277 44.1429L33.8563 37.5714C33.5893 37.3097 33.2302 37.1631 32.8563 37.1631C32.4824 37.1631 32.1233 37.3097 31.8563 37.5714L21.4277 48"
        stroke="white"
        fill="none"
        stroke-width="3"
        stroke-linecap="round"
        stroke-linejoin="round"/>
</symbol>
<symbol id="icon-heart" viewBox="0 0 80 80">
  <rect x="4" y="2" width="72" height="72" rx="36" fill="#EC5C2E"/>
  
  <path
    d="M47.501 23.5C52.3586 23.5002 56.167 27.2938 56.167 32.167C56.1669 35.1442 54.8292 37.8928 52.374 40.8965C49.9133 43.907 46.3825 47.1122 42.0811 51.0127V51.0137L40 52.9072L37.9209 51.0137L37.9199 51.0127L34.8428 48.21C31.9199 45.5217 29.4725 43.1543 27.627 40.8965C25.1718 37.8928 23.8341 35.1442 23.834 32.167C23.834 27.2937 27.6432 23.5 32.501 23.5C35.2496 23.5001 37.896 24.7821 39.6211 26.792L40.001 27.2344L40.3799 26.792C42.1051 24.782 44.7522 23.5 47.501 23.5Z"
    fill="white"
  />
</symbol>


<symbol id="icon-user" viewBox="0 0 80 80">
  <rect x="4" y="2" width="72" height="72" rx="36" fill="#EC5C2E"/>
  
  <path
    d="M40 18.5C50.7698 18.5 59.5 27.2302 59.5 38V38.001C59.5062 42.2841 58.0961 46.4492 55.4893 49.8477L55.3379 50.0459L55.3428 50.0635L54.8066 50.6885C53.7098 51.9679 52.4519 53.1006 51.0654 54.0586C47.8141 56.3064 43.9537 57.5073 40.001 57.5H40C37.1865 57.5025 34.4056 56.8946 31.8496 55.7188C29.2938 54.543 27.023 52.8273 25.1943 50.6895L25.1934 50.6885L24.6562 50.0635L24.6621 50.0459L24.5107 49.8477C21.9037 46.4492 20.4936 42.2841 20.5 38.001V38C20.5 27.2302 29.2302 18.5 40 18.5ZM40 21.5C37.1142 21.4995 34.2785 22.2556 31.7764 23.6934C29.2741 25.1312 27.193 27.2007 25.7402 29.6943C24.2876 32.1878 23.5138 35.0186 23.4971 37.9043C23.4804 40.7902 24.2217 43.6304 25.6455 46.1406L26.0166 46.7959L26.4766 46.1992C27.363 45.0472 28.5022 44.114 29.8066 43.4727C31.111 42.8313 32.5455 42.4985 33.999 42.5H46.001C47.4545 42.4985 48.889 42.8313 50.1934 43.4727C51.4978 44.114 52.637 45.0472 53.5234 46.1992L53.9834 46.7959L54.3545 46.1406C55.7783 43.6304 56.5196 40.7902 56.5029 37.9043C56.4862 35.0186 55.7124 32.1878 54.2598 29.6943C52.807 27.2007 50.7259 25.1312 48.2236 23.6934C45.8777 22.3454 43.2387 21.5967 40.54 21.5088L40 21.5ZM40 26.5C41.4587 26.5 42.8572 27.0799 43.8887 28.1113C44.9201 29.1428 45.5 30.5413 45.5 32C45.5 33.4587 44.9201 34.8572 43.8887 35.8887C42.8572 36.9201 41.4587 37.5 40 37.5C38.5413 37.5 37.1428 36.9201 36.1113 35.8887C35.0799 34.8572 34.5 33.4587 34.5 32C34.5 30.5413 35.0799 29.1428 36.1113 28.1113C37.1428 27.0799 38.5413 26.5 40 26.5Z"
    fill="white"
  />
</symbol>

<!-- <symbol id="icon-star" viewBox="0 0 15 14">
  <path
    d="M13.3191 4.83195L9.44708 4.49595L7.93508 0.935951C7.66308 0.287951 6.73508 0.287951 6.46308 0.935951L4.95108 4.50395L1.08708 4.83195C0.383082 4.88795 0.0950815 5.76795 0.631082 6.23195L3.56708 8.77595L2.68708 12.552C2.52708 13.24 3.27108 13.784 3.87908 13.416L7.19908 11.416L10.5191 13.424C11.1271 13.792 11.8711 13.248 11.7111 12.56L10.8311 8.77595L13.7671 6.23195C14.3031 5.76795 14.0231 4.88795 13.3191 4.83195ZM7.19908 9.91995L4.19108 11.736L4.99108 8.31195L2.33508 6.00795L5.83908 5.70395L7.19908 2.47995L8.56708 5.71195L12.0711 6.01595L9.41508 8.31995L10.2151 11.744L7.19908 9.91995Z"
    fill="currentColor"
  />
</symbol> -->
<!-- 
<symbol id="icon-star" viewBox="0 0 24 24">
  <path
    d="M12 17.27L18.18 21 16.54 13.97 22 9.24 14.81 8.63 12 2 9.19 8.63 2 9.24 7.46 13.97 5.82 21z"
    fill="currentColor"
  />
</symbol> -->

<symbol id="icon-star" viewBox="0 0 24 24">
  <path
    d="M12 17.27L18.18 21 16.54 13.97 22 9.24 14.81 8.63 12 2 9.19 8.63 2 9.24 7.46 13.97 5.82 21z"
    fill="var(--star-fill, white)"
    stroke="var(--star-stroke, black)"
    stroke-width="1.5"
  />
</symbol>


<symbol id="icon-book" viewBox="0 0 32 32">
  <path
    d="M10 11.2002V20.6854C10 22.0464 10 22.7268 10.2041 23.1433C10.5824 23.9151 11.4116 24.3588 12.2637 24.2454C12.7234 24.1842 13.2896 23.8067 14.4221 23.0518L14.4248 23.0499C14.8737 22.7507 15.0981 22.6011 15.333 22.5181C15.7642 22.3656 16.2348 22.3656 16.666 22.5181C16.9013 22.6012 17.1266 22.7515 17.5773 23.0519C18.7098 23.8069 19.2767 24.1841 19.7364 24.2452C20.5885 24.3586 21.4176 23.9151 21.7959 23.1433C22 22.7269 22 22.0462 22 20.6854V11.1969C22 10.079 22 9.5192 21.7822 9.0918C21.5905 8.71547 21.2837 8.40973 20.9074 8.21799C20.4796 8 19.9203 8 18.8002 8H13.2002C12.0801 8 11.5196 8 11.0918 8.21799C10.7155 8.40973 10.4097 8.71547 10.218 9.0918C10 9.51962 10 10.0801 10 11.2002Z"
    fill="none"
    stroke="currentColor"
    stroke-width="2"
    stroke-linecap="round"
    stroke-linejoin="round"
  />
</symbol>

<symbol id="icon-chart" viewBox="0 0 40 40">
  <path
    d="M8.33301 5.5H31.667C32.4183 5.50009 33.1386 5.7988 33.6699 6.33008C34.2012 6.86135 34.4999 7.58168 34.5 8.33301V31.667C34.4999 32.4183 34.2012 33.1386 33.6699 33.6699C33.1386 34.2012 32.4183 34.4999 31.667 34.5H8.33301C7.58168 34.4999 6.86135 34.2012 6.33008 33.6699C5.7988 33.1386 5.50009 32.4183 5.5 31.667V8.33301C5.50009 7.58168 5.7988 6.86135 6.33008 6.33008C6.86135 5.7988 7.58168 5.50009 8.33301 5.5ZM7.83301 32.167H32.167V7.83301H7.83301V32.167ZM27.833 17.167V27.833H25.5V17.167H27.833ZM21.167 12.167V27.833H18.833V12.167H21.167ZM14.5 20.5V27.833H12.167V20.5H14.5Z"
    fill="currentColor"
    stroke="currentColor"
    stroke-width="1"
  />
</symbol>

<symbol id="icon-check-2" viewBox="0 0 40 40">
  <path
    d="M26.6006 14.5C26.8881 14.5 27.0918 14.5879 27.252 14.748C27.4121 14.9082 27.5 15.1119 27.5 15.3994C27.4999 15.6867 27.4119 15.8897 27.252 16.0498L17.7812 25.5205C17.5817 25.72 17.3713 25.8047 17.1299 25.8047C16.8886 25.8046 16.679 25.72 16.4795 25.5205L12.748 21.79C12.5879 21.6299 12.5 21.4262 12.5 21.1387C12.5001 20.8514 12.5881 20.6483 12.748 20.4883C12.9082 20.3281 13.1119 20.2402 13.3994 20.2402C13.6868 20.2403 13.8897 20.3282 14.0498 20.4883L17.1299 23.5684L25.9502 14.748C26.1103 14.5881 26.3133 14.5001 26.6006 14.5Z"
    fill="currentColor"
    stroke="none"
  />
</symbol>

<symbol id="icon-mail" viewBox="0 0 40 40">
  <path
    d="M6.66699 7.16675H33.334C34.8911 7.16675 36.1668 8.44271 36.167 9.99976V29.9998C36.167 31.5569 34.8912 32.8337 33.334 32.8337H6.66699C5.10995 32.8336 3.83398 31.5568 3.83398 29.9998V9.99976C3.83416 8.44282 5.11006 7.16693 6.66699 7.16675ZM33.0693 12.9089L20 21.0769L6.93262 12.9089L6.16699 12.4314V30.4998H33.834V12.4314L33.0693 12.9089ZM6.40234 10.4246L19.7354 18.7576L20.001 18.9226L20.2656 18.7576L33.5986 10.4246L35.0771 9.49976H4.92383L6.40234 10.4246Z"
    fill="currentColor"
    stroke="none"
  />
</symbol>

<symbol id="icon-twitter" viewBox="0 0 24 20">
  <path
    d="M8.41075 18.8823C16.713 18.8823 21.2546 11.9555 21.2546 5.95901C21.2546 5.76518 21.2546 5.56857 21.2464 5.37474C22.1306 4.73021 22.8937 3.93225 23.5 3.01825C22.6741 3.38494 21.7988 3.62662 20.9026 3.73544C21.8466 3.16728 22.5536 2.27332 22.8923 1.21973C22.0054 1.74879 21.0346 2.1202 20.0226 2.31767C19.3423 1.58805 18.4419 1.1047 17.4611 0.942483C16.4803 0.78027 15.4737 0.948249 14.5973 1.4204C13.7209 1.89255 13.0236 2.64252 12.6134 3.55415C12.2031 4.46577 12.1029 5.48818 12.3281 6.46299C10.5334 6.37237 8.77762 5.90289 7.17468 5.08501C5.57175 4.26713 4.15744 3.1191 3.0235 1.71539C2.44784 2.71653 2.27216 3.90075 2.53214 5.02759C2.79211 6.15442 3.46825 7.13938 4.42325 7.78245C3.70762 7.75797 3.00772 7.56447 2.38 7.21756V7.27987C2.38123 8.32863 2.74205 9.3448 3.40145 10.1566C4.06086 10.9684 4.9784 11.5261 5.999 11.7353C5.61161 11.8428 5.21144 11.8964 4.80963 11.8945C4.52635 11.8954 4.24365 11.869 3.96537 11.8156C4.25383 12.7184 4.8155 13.5078 5.57171 14.0731C6.32793 14.6384 7.24081 14.9514 8.1825 14.9682C6.58276 16.2334 4.60668 16.9196 2.5725 16.9163C2.21407 16.9178 1.85588 16.897 1.5 16.854C3.56458 18.1793 5.96228 18.8831 8.41075 18.8823Z"
    fill="currentColor"
  />
</symbol>


<symbol id="icon-facebook" viewBox="0 0 24 24">
  <path
    fill-rule="evenodd"
    clip-rule="evenodd"
    d="M23.5 11.5704C23.5 5.1801 18.3515 0 12.0014 0C5.64848 0.00143732 0.5 5.1801 0.5 11.5719C0.5 17.3456 4.7056 22.1319 10.2019 23V14.9151H7.28415V11.5719H10.2048V9.02062C10.2048 6.12155 11.9224 4.52037 14.5484 4.52037C15.8075 4.52037 17.1226 4.74603 17.1226 4.74603V7.59193H15.6724C14.2451 7.59193 13.7995 8.4845 13.7995 9.40008V11.5704H16.9875L16.4787 14.9136H13.7981V22.9986C19.2944 22.1304 23.5 17.3441 23.5 11.5704Z"
    fill="currentColor"
  />
</symbol>

<symbol id="icon-instagram" viewBox="0 0 24 24">
  <path
    d="M12.5 1C9.51488 1 9.1395 1.01375 7.96663 1.066C6.79375 1.121 5.99487 1.30525 5.295 1.5775C4.56088 1.85363 3.89593 2.28676 3.34663 2.84663C2.7871 3.39621 2.35402 4.06108 2.0775 4.795C1.80525 5.4935 1.61963 6.29375 1.566 7.4625C1.51375 8.63812 1.5 9.01213 1.5 12.0014C1.5 14.9879 1.51375 15.3619 1.566 16.5347C1.621 17.7063 1.80525 18.5051 2.0775 19.205C2.35938 19.9282 2.73475 20.5415 3.34663 21.1534C3.95713 21.7652 4.57037 22.142 5.29363 22.4225C5.99487 22.6947 6.79238 22.8804 7.96388 22.934C9.13813 22.9862 9.51213 23 12.5 23C15.4879 23 15.8605 22.9862 17.0347 22.934C18.2049 22.879 19.0065 22.6947 19.7064 22.4225C20.44 22.1462 21.1045 21.7131 21.6534 21.1534C22.2652 20.5415 22.6406 19.9282 22.9225 19.205C23.1934 18.5051 23.379 17.7063 23.434 16.5347C23.4862 15.3619 23.5 14.9879 23.5 12C23.5 9.01213 23.4862 8.63813 23.434 7.46388C23.379 6.29375 23.1934 5.4935 22.9225 4.795C22.646 4.06106 22.2129 3.39618 21.6534 2.84663C21.1042 2.28655 20.4392 1.85339 19.705 1.5775C19.0037 1.30525 18.2035 1.11963 17.0334 1.066C15.8591 1.01375 15.4865 1 12.4973 1H12.5014H12.5ZM18.3726 4.80875C18.7227 4.80875 19.0585 4.94782 19.306 5.19537C19.5536 5.44292 19.6926 5.77866 19.6926 6.12875C19.6926 6.47884 19.5536 6.81458 19.306 7.06213C19.0585 7.30968 18.7227 7.44875 18.3726 7.44875C18.0225 7.44875 17.6867 7.30968 17.4392 7.06213C17.1917 6.81458 17.0526 6.47884 17.0526 6.12875C17.0526 5.77866 17.1917 5.44292 17.4392 5.19537C17.6867 4.94782 18.0225 4.80875 18.3726 4.80875ZM12.5014 6.3515C13.9844 6.37464 15.3988 6.97999 16.4393 8.03691C17.4799 9.09382 18.0631 10.5175 18.0631 12.0007C18.0631 13.4839 17.4799 14.9076 16.4393 15.9645C15.3988 17.0214 13.9844 17.6267 12.5014 17.6499C11.0184 17.6267 9.60403 17.0214 8.5635 15.9645C7.52296 14.9076 6.93973 13.4839 6.93973 12.0007C6.93973 10.5175 7.52296 9.09382 8.5635 8.03691C9.60403 6.97999 11.0184 6.37464 12.5014 6.3515ZM12.5014 8.33288C11.5288 8.33288 10.596 8.71923 9.90833 9.40695C9.22061 10.0947 8.83425 11.0274 8.83425 12C8.83425 12.9726 9.22061 13.9053 9.90833 14.593C10.596 15.2808 11.5288 15.6671 12.5014 15.6671C13.474 15.6671 14.4067 15.2808 15.0944 14.593C15.7821 13.9053 16.1685 12.9726 16.1685 12C16.1685 11.0274 15.7821 10.0947 15.0944 9.40695C14.4067 8.71923 13.474 8.33288 12.5014 8.33288Z"
    fill="currentColor"
  />
</symbol>

<symbol id="icon-arrow" viewBox="0 0 24 24">
  <path d="M6 7L12 13L18 7L20 9L12 17L4 9L6 7Z" fill="currentColor"/>
</symbol>
</svg>