<svg width="40" height="40" viewBox="0 0 40 40" fill="none" xmlns="http://www.w3.org/2000/svg">
<path d="M26.6006 14.5C26.8881 14.5 27.0918 14.5879 27.252 14.748C27.4121 14.9082 27.5 15.1119 27.5 15.3994C27.4999 15.6867 27.4119 15.8897 27.252 16.0498L17.7812 25.5205C17.5817 25.72 17.3713 25.8047 17.1299 25.8047C16.8886 25.8046 16.679 25.72 16.4795 25.5205L12.748 21.79C12.5879 21.6299 12.5 21.4262 12.5 21.1387C12.5001 20.8514 12.5881 20.6483 12.748 20.4883C12.9082 20.3281 13.1119 20.2402 13.3994 20.2402C13.6868 20.2403 13.8897 20.3282 14.0498 20.4883L17.1299 23.5684L25.9502 14.748C26.1103 14.5881 26.3133 14.5001 26.6006 14.5Z" fill="#23856D" stroke="#23856D"/>
</svg>
