<svg width="72" height="72" viewBox="0 0 72 72" fill="none" xmlns="http://www.w3.org/2000/svg">
<rect width="72" height="72" rx="36" fill="#D4EAF6"/>
<path d="M24.333 21.5H47.667C48.4183 21.5001 49.1386 21.7988 49.6699 22.3301C50.2012 22.8614 50.4999 23.5817 50.5 24.333V47.667C50.4999 48.4183 50.2012 49.1386 49.6699 49.6699C49.1386 50.2012 48.4183 50.4999 47.667 50.5H24.333C23.5817 50.4999 22.8614 50.2012 22.3301 49.6699C21.7988 49.1386 21.5001 48.4183 21.5 47.667V24.333C21.5001 23.5817 21.7988 22.8614 22.3301 22.3301C22.8614 21.7988 23.5817 21.5001 24.333 21.5ZM23.833 48.167H48.167V23.833H23.833V48.167ZM43.833 33.167V43.833H41.5V33.167H43.833ZM37.167 28.167V43.833H34.833V28.167H37.167ZM30.5 36.5V43.833H28.167V36.5H30.5Z" fill="#31A0FE" stroke="#31A0FE"/>
</svg>
