<svg width="40" height="40" viewBox="0 0 40 40" fill="none" xmlns="http://www.w3.org/2000/svg">
<path d="M6.66699 7.16675H33.334C34.8911 7.16675 36.1668 8.44271 36.167 9.99976V29.9998C36.167 31.5569 34.8912 32.8337 33.334 32.8337H6.66699C5.10995 32.8336 3.83398 31.5568 3.83398 29.9998V9.99976C3.83416 8.44282 5.11006 7.16693 6.66699 7.16675ZM33.0693 12.9089L20 21.0769L6.93262 12.9089L6.16699 12.4314V30.4998H33.834V12.4314L33.0693 12.9089ZM6.40234 10.4246L19.7354 18.7576L20.001 18.9226L20.2656 18.7576L33.5986 10.4246L35.0771 9.49976H4.92383L6.40234 10.4246Z" fill="#EC5C2E" stroke="#EC5C2E"/>
</svg>
