<svg width="15" height="14" viewBox="0 0 15 14" fill="none" xmlns="http://www.w3.org/2000/svg">
<g clip-path="url(#clip0_5074_990)">
<path d="M13.3191 4.83195L9.44708 4.49595L7.93508 0.935951C7.66308 0.287951 6.73508 0.287951 6.46308 0.935951L4.95108 4.50395L1.08708 4.83195C0.383082 4.88795 0.0950815 5.76795 0.631082 6.23195L3.56708 8.77595L2.68708 12.552C2.52708 13.24 3.27108 13.784 3.87908 13.416L7.19908 11.416L10.5191 13.424C11.1271 13.792 11.8711 13.248 11.7111 12.56L10.8311 8.77595L13.7671 6.23195C14.3031 5.76795 14.0231 4.88795 13.3191 4.83195ZM7.19908 9.91995L4.19108 11.736L4.99108 8.31195L2.33508 6.00795L5.83908 5.70395L7.19908 2.47995L8.56708 5.71195L12.0711 6.01595L9.41508 8.31995L10.2151 11.744L7.19908 9.91995Z" fill="#737373"/>
</g>
<defs>
<clipPath id="clip0_5074_990">
<rect width="14.4" height="13.8" fill="white"/>
</clipPath>
</defs>
</svg>
