<svg width="40" height="40" viewBox="0 0 40 40" fill="none" xmlns="http://www.w3.org/2000/svg">
<path d="M8.33301 5.5H31.667C32.4183 5.50009 33.1386 5.7988 33.6699 6.33008C34.2012 6.86135 34.4999 7.58168 34.5 8.33301V31.667C34.4999 32.4183 34.2012 33.1386 33.6699 33.6699C33.1386 34.2012 32.4183 34.4999 31.667 34.5H8.33301C7.58168 34.4999 6.86135 34.2012 6.33008 33.6699C5.7988 33.1386 5.50009 32.4183 5.5 31.667V8.33301C5.50009 7.58168 5.7988 6.86135 6.33008 6.33008C6.86135 5.7988 7.58168 5.50009 8.33301 5.5ZM7.83301 32.167H32.167V7.83301H7.83301V32.167ZM27.833 17.167V27.833H25.5V17.167H27.833ZM21.167 12.167V27.833H18.833V12.167H21.167ZM14.5 20.5V27.833H12.167V20.5H14.5Z" fill="#31A0FE" stroke="#31A0FE"/>
</svg>
